<?xml version="1.0" encoding="UTF-8"?><svg id="a" xmlns="http://www.w3.org/2000/svg" xmlns:xlink="http://www.w3.org/1999/xlink" viewBox="0 0 16 16"><defs><style>.d{fill:#fff;}.e{filter:url(#b);}.f{fill:#2196f3;}</style><filter id="b" filterUnits="userSpaceOnUse"><feOffset dx="-.34" dy="-.17"/><feGaussianBlur result="c" stdDeviation=".37"/><feFlood flood-color="#000" flood-opacity=".4"/><feComposite in2="c" operator="in"/><feComposite in="SourceGraphic"/></filter></defs><path class="f" d="M4.84,2.64h1.93l1.21,3.57,1.21-3.57h1.94l-1.84,4.9,1.37,3.45L13.72,2.61h2.28l-4.39,10.78h-1.76l-1.87-4.52-1.87,4.52h-1.76L0,2.61H2.25l3.07,8.38,1.34-3.45-1.81-4.9Z"/><g class="e"><path class="d" d="M15.19,8.37s-.12-.1-.24-.18c-.12-.08-.26-.15-.42-.22-.17-.07-.35-.13-.54-.18-.19-.05-.39-.08-.59-.08-.36,0-.63,.07-.8,.2-.18,.13-.26,.32-.26,.56,0,.14,.03,.25,.1,.34,.07,.09,.16,.17,.29,.24,.13,.07,.28,.13,.48,.19,.19,.06,.41,.12,.66,.18,.33,.09,.62,.18,.89,.28,.27,.1,.49,.23,.68,.38,.19,.15,.33,.33,.43,.54,.1,.21,.15,.47,.15,.78,0,.36-.07,.66-.2,.92-.14,.25-.32,.46-.55,.62-.23,.16-.49,.27-.79,.34-.3,.07-.61,.11-.94,.11-.5,0-1-.08-1.49-.23-.49-.15-.93-.36-1.32-.64l.58-1.12c.06,.06,.16,.13,.31,.22,.15,.09,.32,.18,.52,.27,.2,.09,.42,.17,.67,.23,.25,.06,.5,.09,.75,.09,.72,0,1.08-.23,1.08-.69,0-.14-.04-.27-.12-.37-.08-.1-.2-.19-.35-.26-.15-.08-.33-.14-.55-.21-.21-.06-.45-.13-.72-.21-.32-.09-.6-.18-.83-.29s-.43-.23-.59-.37c-.16-.14-.28-.3-.35-.49-.08-.19-.12-.41-.12-.66,0-.34,.06-.64,.19-.91,.13-.26,.3-.48,.52-.66,.22-.18,.48-.31,.78-.4,.3-.09,.61-.14,.95-.14,.47,0,.91,.07,1.3,.22,.4,.15,.74,.32,1.04,.52l-.58,1.06Z"/></g></svg>